<mxfile host="app.diagrams.net" modified="2023-08-27T04:01:42.126Z" agent="Mozilla/5.0 (X11; Linux x86_64) AppleWebKit/537.36 (KHTML, like Gecko) Chrome/116.0.0.0 Safari/537.36" etag="AF85-CzOPVQdhDpEwFd4" version="21.6.5" type="device">
  <diagram id="vbLhQbN6RvwJM4y8WpTE" name="Page-1">
    <mxGraphModel dx="868" dy="485" grid="1" gridSize="10" guides="1" tooltips="1" connect="1" arrows="1" fold="1" page="1" pageScale="1" pageWidth="827" pageHeight="1169" math="0" shadow="0">
      <root>
        <mxCell id="0" />
        <mxCell id="1" parent="0" />
        <mxCell id="pneFMP7v_BMhMkfiTxfn-10" value="" style="group" vertex="1" connectable="0" parent="1">
          <mxGeometry x="168" y="120" width="290" height="70" as="geometry" />
        </mxCell>
        <mxCell id="pneFMP7v_BMhMkfiTxfn-3" value="" style="line;strokeWidth=8;html=1;fillColor=#008080;strokeColor=#008080;fillStyle=auto;" vertex="1" parent="pneFMP7v_BMhMkfiTxfn-10">
          <mxGeometry x="10" width="280" height="10" as="geometry" />
        </mxCell>
        <mxCell id="pneFMP7v_BMhMkfiTxfn-8" value="" style="shape=image;imageAspect=0;aspect=fixed;verticalLabelPosition=bottom;verticalAlign=top;image=data:image/png,iVBORw0KGgoAAAANSUhEUgAAAMUAAABGCAIAAADzfsfRAAAAA3NCSVQICAjb4U/gAAAbqElEQVR42u18a4xc53ne877fd86Zmd3Zmdnlci/cJSnelsuLRMq6UJIlx1ZlGbGa1OkVcYwiRZraTgGnKFq0+dEfBZoWKAo0KJo2gQHHBdokdWvAhWU7SixatiObkqgLaUpLkUuKt+VeuPfZnTnnfN/79sfZGS73IlsMKdnxvOAP7syZM9+c75n3fd7nfc6QqqIVrbhDwa1L0IoWnlrRwlMrWnhqRStaeGpFC0+taOGpFa1o4akVLTy1ooWnVrTw1IpWtPDUihaeWtHCUyta0cJTK37a8STigGUAolBRwAMeeK9Gqsx6peuitSs/u2Fv61X69ti1S1Mz2yObD6zCKomCWPFeQWWtLRQKxWIxDMPsESJq7crPF54800xcuzY73daW78iFUMsQKAHATwyGLA8R0cLCwszMTEdHR6VSiaKohaefOzwpyIMELCAvyhBVT0pK9J6KFRGpqojU6/UkSRYWFrq7u0ulkjGmtTE/R3gyoFCtFbJKhghKIAIRcDu5JUtIGarGxsaWl5e3bNkSRZGqElErXf315+MEGIVREMBZmQPdERbtnLtx48bExEQcxy0w/bzgSQFP4hlCEMoARndEesgwNDs7Oz4+Hsdxa3t+LvAkgDNwpELQFTARKZHefjrRjKE3SPrc3Nz09HSapn+Fj9bSHX5G8MRQK8pZUlJlFYIIKQuTsmOfkg/EGB+wBqkhb9SqBgJVilVS8S516hNoLASCClTIBhIE6ggug9T09PTi4qJzLuPsm2FGPSCACOAUicJ5iCKFxtAUDg7w8AInAoVAoQoPCDz03XQzvfXfho+/5+/Mbb92lVb3142Pb8p+bJoYmpqv+lQ4shUwsXDsvbTPqvcuTpNkrr48Vl+uOt+Raxvq6utuz+UoDpBAScnUgoBUraxcwYmJiVwul8/nNyVSpGQEosKIwQGsdTAEzwwEBKiF9Q7Eng2zkqqSKtRoCrWOIQYGqUGwIU3UdxVA3ms2plUwuo1M/jOh9N5JPJGinLb/y1e/+9LYdRhGyKzIJcT1hWoS19IEtYTqnkVhjObD8o7tf+fog7/aN7AlBNTVrFG1Rm9mjCRJ5ubmwjDcTEFQwIOIDQSBgKEKhapx5Ig9A1RnaEp5KyAlMZyAGD6EQIkBBlgdKPjJEUOblVbaPC/R7cMoQ5JzK2n7p1xMuZN4Ekon44WxuYWUCs6CYqeKtE4piSpBQxijeechIDWVjoWuLV+ZHXOh/2zfTrISpbAiqdHVNGx2drZSqTDzhimKoFZT7/ny/MK56SmvahRC4omUyKgY8ZHa/p6B/nJHGyXswunF2lxaGyjmSxGTggCofTco/CQooLvF1kSkWq0uLCzMzc2pahiG5XK5WCy+W87+a4MnlkA9UxRJvAwVolhJUkua5o3EXmugOpgMrC+Xwm19YZhf9hhZWDpfXD7YXnTGMxwreeLVCsL8/Hx3d/emO6nhcs1/7a2R//TD51OOComtWXKsociyixdiryT/6iMf/cKHHmjLB3XCv/vzZ384dvXzH3niHx49SoCCAg2apSSTWNelBxCBGrDKhLH1h9Eq3K1+NptC0SqxrcmENsNE9pT3/urVq6dPn56amrLWRlG0vLwchuHOnTsPHjxYKpXWnLC5/jWnXbPU9cdsWElvD693Ek+eTVeh8PTgzo7LV64ly/NGIVrw7C3a80GHj/JUupG6qSjP3f0SBqmkQWqnk/iGi60px5qqEaNmzbVYWFjYsmXL5sXA5yJ+fNcuDqAwkWMheBJJ/XcuXjh+5fKWQvuRcrkcKBhxml5Znps0bnJhIRAFq4OBQA0AJZCqNpONAkoNOKySalcudOMwaSQws0mCa46iaF3i25CfNfF6+fLlF154obu7+6mnnurt7TXGJEly8eLFS5cujY+Pd3R0rN/y9cgQkeZh2WnvKg+zd/Rsrk7znzs0/OSWrtfmb0zXY+d9GzgfuY5COaTCeJx+e/b69XRJ1edTEaaUNWeCDssicc7DsRXQmp6zXq8756zdcKnkyWqIe/v7jvb1KUEAhqr3P7x2/ZvvnC9G5jeOPvCxe/YFYR6KkpF/8cSTb09MffzgISgAQwCMeBFVZWPSNBWRMAyZWVRT58T7wAaBsav3XgEFKWmaps65IAyMses30ntvrBVomqZMFASBWcWkvEiauqyKMa98aG7s9cLCwvHjxwcHB5944onmsDyKoqGhod27d2/wZfZeRIwxzVOtBln2lPfee2+MWU/CstUyc/bUbRfTO4mnwFsxUtP6rq3le3t6lY2QWqh498qN2WevT3zr2tX5MDAcGFEB4LVD0kds8WBYJO9BzMpKjcGy3swZS/XljUfFCgNPENYMh2SUAIzemP3iKy+dnLz2D/Yd+PShg10dORLELASXsX2SRExeAAaWJf3q6TOSSltb+/jcDS+ys9w92FmZXK5euDGVpnGlWLqvb8fero68JShn5evy/PwbE1cnZmbrsQvb8nu7tjw0uL0YBFAVosT5M2MTr09d6e8oz8Vucn7GGD7Ut+3h/oF8YBPRCzPTpybGry8sqE872wr7tvQc7N+Wt6yNvRwZGXHOffjDH46iqJm0sp0OgmA1Vmq12uTk5PT0dJIkURRVKpW+vr7m5SKiycnJubm5SqWSjbNKpdL+/fuNMdk54ziempqampqq1+tBEFQqlZ6enra2tg++3gmpggRGgCWXKFjDYGxu7sTY1P+9PDLikpwt5FOXBHBENkUe8uiWzo/19uYj69UBIAgpAaSUTQQVEAXqSbwpESaTpXIPzuY/16uLXz71o+Oj7zzav+3X7//QYKWkgGNEUKj5w5df/erZ018pFgZLJSIQZLHmf+sb3/BOe9pLoLjqfYcPh/u2Xl+am1iqK6U1j4/vOPTPn7j/aG8XIST4Czeq/+2VV/732ycjr6EtXK5Vd7dXPnvs6OfuPSYs3qAap39y6q3fP/2DncU251lYDfQX9w3fW96ab6cT165+6eWTf3Fx1NugYLBQWzzUNfCbDxz75IFdbcHK4PLs2bP79+/P5/PNscGGNGtxcXFkZOTKlStEZK1NksR7v2fPnoMHDzaBeO7cubfeemtwcHBpaSkD0NDQUFb1arXa6OjouXPnRMRa672/ePFif3//wYMHy+XyB17vYL0yU0JKNqzH8oPRC8+Nj3736lQcwQaWXOxMTsUY7zpZH+/t/tTAnqFyKUYC4sCTEIQVkJVrqCtMlp28qwrOCShUQPVGEv+/N0f+z5nXBsqF33zw0X39g2LAqpYU3oCkHtcViOO4SSJEtRoL5/jevsov79s/MjvzP19/7dl3Ru7v7f3Co48q4ys/OvWNc689tqNyuLLFRJxK7Uuvv/RHb5x6uHfwbw7tLbeFb01P/5dXXv0P3/mLZ7qHtg1WgBiazEuSxqRF85l7D+ypbIWir1Juj8LRubnff/2lb148/3jv4DO795ZyhR+MX//jM2f+/fHnd3fmjmzbYZgBTE5OPvrooz+GsHo/Ojr6zjvv7NmzZ9++fYVCoVqtjoyMnDp1qlwu79ixI+uLvfezs7OHDx8+duxYLpdr1kQRGR8fP3PmTG9v7+HDhzs6OuI4Hh0dffPNN3O53KFDhzJEfnD9HeAIVqnA4cWZmT87O/LsxXNTLuWow3g1SgROWCDp4ULhF7cNPNrf25PLO6kHyqSUMoGUGupxQ0RWo8SyqbZICgKFAARpKi+OvvOl118Wo79x9MFfGBiMWIFGBWWsMFFVWnMu4a5C4fMPPPLUrnvOzNw4Nzn155evPH3Pwc8/+LAjri6lZ8emxmbnl2ppKYzGZxaPX7xgAv7V/YceHBxk6+4vd738zuXnLl/92sXz/7T/IWeJ4IE0ypmndg/9s8c/EgWWlLO3PHHuyslL1w909X7hw8c+OrjdIPzYvl3jtYWvvznyjXNvDfduK3C4hsFs1gkuLS1du3atp6dneHg4K3Dt7e1HjhwZHx8fHR3t6+vL5XJZHiqVSg888ECTWmVni+N4bGzMWnvkyJFisQggn88PDw/Pzc1dv359+/btm7fVdxpPG3YIKcN6GGOujk99+TvPfWviSpovWZs3qAUaemLmdCDA44ODf6O790ily7I671MmFlawZw29sGrWkCggBGUS/y4NiQoplBki8CevT/73116+Vl/8J0ce/OTeobYoAFIoAyYlCrTRYtEtcFKC2CQ07fs6SiApReHOjlIlmNje3hYEyqCefFsujOZdUiXfwTgzMz+z7J2mfzr60tcunfXQCMnkQl3YjdRvwAHWxtaApCPA7nKxzRqBZyiUUqYLizPX56u/svfwga1bxBoSbM3bT9xzz/HRq6+NLyReCgEAbN269dq1a7t37872fsOmbHFx0Xvf2dmZ4SaDnbW2p6fn8uXL3vtmrezo6FjDwVW1Xq8vLi52dXUVi8WmAmKt7erqmp6ertfr72O9U6Axvr3lYaI0lS9+42vPXXw7LRRFY2K4vCJNc8SP3bPz6V07j/Z0l3L5VMSDrRArUsNCRJDAe8cGZMgLA8rqgXdx6TW7cadyfnrqi6+deG1s/FP79n/60L1bSkUooB7kRa0SPCcma+oJemvzzuqsqCdAbURBZA2TGBILMoBVVVJPpKQMbyQFpWXQrvZSLmpXIuVaX3nrk7z9sV07wGCw51AoDMQQGyHDoEw0CERDpwQPwHprxChI2SRgAsWJND/q/v37X3/99fvvvz/LHBuKAs2y1UxgTeFqjUbQ5OZrero0TVez+9XC2AfAxxVQ3FSzA68w9sSFt//yR6djZkEtTJVtUEtlsL3y9x5+5IntA4Pldg9xKlDjmbwRVmVVQBnwTEuMehoXYaNMLMncesybFTsrAHRssf6np9781ujbx/p3/qP7Hx3o6qaVLBoq4AlhCgk2E7HJCLGYxABKLJQadYzUQMEEdSye1CiFHuQx1NlTzuev1NIP9x/66K7tUagOfqrmcqn2drXDCitCR1CTsmWxBHiwYThA4Qc6OnraC9+7cu6ZsZ3du9rJyI3F+PnRtxeSeUNt1Fjj0NDQ2bNnT5w4kbV4zd313mfmsFwu19HREYbh5ORktVotFosZzur1+rVr1zo7O40x74KJ7OA4jhcXF2dnZzs7OzPkJUkyPj4ehmGhUPgg+LhCswEJwahqGJx951LshKCMGEkaRuHTew994sEHD23ry9kgUSJlVqVs0E9iVQVkiPM2qqp/4fRrxWL53oGdhkgaFpaoIcBspI/zQrr87Pm3v3TqTArq7whHF65fHpkmAsh5sPF0b2//zmI76y3Xd7XfPTUBYAJRMJwRAMYb67N+QDyLFQIoZaNs+iuVJ/fs+a+vvPx7r37/Wnqgr1SZqcbfuThirX75k5/2DCPOqFNOhRzBUyZ+KBlAgGN99xwduPT1C2/+25e//8zMjfYcv3j50vMXL8epExht5Jj29vbHH3/8xRdffP7554eHh7du3RpF0fz8/OXLl6empnbt2rVnz558Pr9z58433njj5MmT+/fvb29vr1arb775Zr1e37t377uz6exSGGPm5+dPnjw5PDxcLpfr9fr58+enpqYOHTq0Pi/eLTyt5A3AQwBPGgg7hXjAJK6r2K6SsINNyeeiwuG9+3bvK5TKc863KeXZmswuBTWqqfhqmiwu167fmDs/MXF6ZuLV8UufffSpvHJqJUwFgFqOCrnNLQY0FrsfvHNhbO4GctHXL1z47qVLQkYJpJIYyqf+tx75yN8/eKTMRhhRzltUJbTsCFZSsFFbMESm1sY5QEmR9wA5z5aUAENsIq7lDIiNECLDnznyQOz0qydf+o8nXgxyBV1Oa3Htmfv3WoJTxMyBoJ0Sw7U0uOkKIoDBg12dnzt6JImTb49dPTs+GQTkmQ919p+pX9SgQMRZrWHmgYGBxx57bGRk5JVXXknT1BjjnIuiqL+/v6urK6t3O3bsEJHR0dHjx49nomU+n3/ooYcyPT0rXrncxlePiKIo2rZtW6FQOHHiRDPtDQ8P79q1a00dvIt4UoJliKj36kKEcFAQNLWoIX3kwMGKMZd8XC9Yc2jPRLH9f01MhlOTBeaQEAIG0OzFSRzHsY/jWj1eTNL51C/FrpxHX1spR1zVNDMs5cMoCDZbp4Dinnzwa0fue3jbgGNjVANRRwoQK8UWpOlD23rbrAM71uhzDzz+5PZ9D227B6wensCVMPrDT/4KBdLZ3gZoRz73S4fvG+4ZeKh/B6Dk6MnBvcWnfmloS29nIc+qoGSoXPjtBx98+p5d5+dmF5aXyybcvWXrYF8FnJEtFHK5z9x37FjPrge3776ZDAEFUYCHdmz/3fbSqzMTS4sLsNzf2bXLFN+YvNjX1d0WBk2uw8yDg4Plcnlubq5arTrncrlce3t7qVRqa2vLTpjP5/fu3dvd3V2tVjMyVCwWy+VyNk7IStjQ0ND27ds3bBKJqKur6/Dhw4ODg0mSEFFbW1u5XM7lcrfrMXnv0xyBXpmbffaVUxVgX0/FpHVFwCCBBCAfBH/54ol/8z/+aPboPtvVn3AIdaAGf/fCXihOJU00rdtaqmnqM1McMav+2sOP/OMjx8qFcNmkLPCKgb5t/X09ZIONiq2IJlD2gtSLEnlWIc1UhsBTxhRCNmzIGxAICfsUlGM2zsADFmqqrmaFoiAgJWeQqjexDwyrZRYDh7p4BMyWQhFhj6wdBS2JW/axNaYtDK0aIrBCoXUChGxNgsAiXLXcRhdjPcXqvffCsNbkPC1pErIJbLiaL6+ZmTDzmnFKcwy8vpY154DNY9ZoEDMzMy+99FK5XD527Nj68d/6uc1dy09AX3uHzdmJueU9To06T5YUoUMtlDCJP3zkvv/c/6+/+s655+YnktoyIgMwhMkTBAKPILuDQZ03BhZIoHHFyd899MDfPvihYi5INCXvRWBsVCmVaZPPRsrG57JZbBisGNmbo1a1MAA8PCMlECDwEpKEZG+OgOEJURAEjqGcGAgQgG3IkhmajcBknmbN7M3kw4zsE6NgTRSETIATWGUFPBFzSOpYpA0pvM2mhEDmzWIiBUCIyIAMMhu+RR4RK2024c/S1U/oAljToG3ohtiMVK1pFd8PPDFg2A4PbPuz+beuzc3tLua9SkoEYhUsWl8gPbK1Z8+W3l9PZPTG9AszY+dvjF9xS/PwYIUTOIc0RerIpcy6Jdf+UP/+TwwfPNDb12E5plTh2CmTrRRLQS4S3sSYTICBEBQCKENJDQkhm+YZgSoa/aEVgNhnPFQIMMosYKMwWLFAOcAAVgFk2QxGANKG1ErKUJONkrM3FQsiMVDjIRDO1mOEDBHIQ7S59OYek8Ib4UYVVMCB7DrDwR1xOG2oFKzsvbWlUmmNleqv+KZ0e+4FUa2l7vdeeJ6Xl57cut2SrxtVBEaVWAjOeA04qIEWDZcSSaDV1M2lyWK9Xk3qtbieimdrOqNCT5DvyuWCHIv1hjz7oK4SiBoBm3D/vgP5SjszbYIohUo27G9AnbM/UkCgEYRVlUgBloappHGsb7R4LtMV1Ct7AkGMZ/ZoptGbG60MuvmO2rixhxVwyFLgyjps5pzK8tj6VWeSauMcSqBsBvB+uS9FJNOfMg5+p057e/wJLCokr14b+/L3v/dAceuB7g6V1HrDCiLUAxXW0K3g3RFxRixEBeoVAobCQBUqDANYL6qSGBUQRG0qGgZtlc6hnXspb0PIhlc6ww2vul1LV1mLkGUahTJ84zBdUUFhGuaQzMMAUbCgKcwTgQmalWhYZFRrJYfdxBEAhSdo9l63GjUz/4xZPylSgNQ3HqYGEOlWU95djeYNDrdNle5cvVOASEjv6+8/eM/wy6NvdYV+W9QWc6LMAFMKC3JQIvUQQgCIQJhWbgElYlVh9QI1okqUgNnbMCbPjuBzZCaTZMfAgM0FDgq/8ReXFKE2NgRNm0uWtDL3yoqxciVbKBEDEAMo2BEMQOKV2RtmsAcMgRlCIAhBjHI2mTYEiCqLVYbSTfxCjQIkAEHVr3jrOEttZpVx7qZ5mAAh00QTMjRnKH//XLy3x5DuQr0TgOAIVuAT+Z3nv5LO1J/pOdwR1FPjl5lC5YLzQk5ZBGANJGOztAICVhDgCY7Y+Ezug1F15DglDXPX4oXh+w7t7unPCQHwjPffha8bsbVVc4H1MsqduKP1vSyM8BM73N+voNt2f2bpOgWW5mu//e0/KVfpl/t3RoEPxDtGzQSRM8rsSSIvG4lYTAIr9TSrcYqUyPicRMH47NTe3buG9uxtC0Pe3Bf7wWAqm1JvdKxRuQNvuPGv1BA2vFf2p++OhNvl41nhEzjSOtHywvLvPPfHND/3twYOlzhvNGVKY6NWQ49cauusMAoWZP25EAg+8Oo1sgLAx6ykWuDkR4vz2/cOP7x7uN1EsEgJvCEFueuwWfvt11VFdvV23lkzNm2yIE+39CO0iizSTxO6bgtPCmRObQWcqiFPmE+S333+e6dHz3xqcOBAW0GYQzEkCL3GtnFTLIFWHEuAkkBBCWA8QoIuS3pqefHg4eFH9gx1qiUPGDha+fmNu3q1ZB2udKUuUzZZ0pVWDYCSpgTJHpGGxUKgqgGa1q3bQdpKZW/KCyt8HyvuLQZWfsWm4bvJbvEnWrmktwCLfrbwhBX+tNLiCuCRWnzt9Jk/ePH4trD4dGVbZwGWnQVxhqOGl42REVwvJCKBiDjC29XlxXzbU0cfvrevZKmRA6jx/bsLeGoKx6qq1PzZxew/4r0kpHXKNGzx4p33qXPOu2UNEkHiUu994pz33nknqlWFZN4RkbU/3th4q3X8d6VdoEaEYMNs2Rg21hjDbI0NDDqobo0JgiBgY621xhg2ETgPw4YNGWYyxEyZ2ta4B2eVpIn35bf/brPeNffXryh+cJQ1KDS1FP/B6z/85lun9/n8I5XO7sgUgjwA8IqURwT1ImBHpurrb9cXF1g/OnzgF3bvyUeRFZNhdKWle1/4pkCxqlfPyDYpSKj5xddGj8a6ju5kuFfd3EX6Ywvtqhc2d4RWbsqAkjCtr4ZKNysf3aJhbjCKuRvd3J2sd64p5AEuE2AAEqQkTDpbX3r23JnjoxcvTi0MWNcVtW0NCu0UgGiJ/ayP59Mkge3p7vr47j3Htm3LhyFARgVqQEaoMZZvSkR3X4xZ+w3WRhNHdHObM+toY4Jxc7eQqRq33tW5Ci/rP8GaFpGaZUpXE7QmdriBMF0DU7115RviZsMx308LnrTBSR1lo4mGvEveQ4032f4rI2VUl5ffmpmfmJmupnWnYogCcDnXtn1L1+5ye97mhCiTA7JzZt0TrwLTzap3l2WY1Rd9pQiuwgHd5E/rkYc1mXS1tEmbtfq3piZd94Su++EDXZVHV3Q3vbnG9ycD3S29oBWt2EDrbl2CVrTw1IoWnlrRwlMrWtHCUytaeGpFC0+taEULT61o4akVLTy1ooWnVrSihadWtPDUihaeWtGKHxP/H6CTI8YIgYcaAAAAAElFTkSuQmCC;imageBorder=#008080;imageBackground=none;dashed=1;" vertex="1" parent="pneFMP7v_BMhMkfiTxfn-10">
          <mxGeometry x="120.13999999999999" y="10" width="168.86" height="60" as="geometry" />
        </mxCell>
        <mxCell id="pneFMP7v_BMhMkfiTxfn-9" value="Brought to you by&amp;nbsp;" style="text;html=1;strokeColor=none;fillColor=none;align=center;verticalAlign=middle;whiteSpace=wrap;rounded=0;" vertex="1" parent="pneFMP7v_BMhMkfiTxfn-10">
          <mxGeometry x="5" y="20" width="130" height="30" as="geometry" />
        </mxCell>
      </root>
    </mxGraphModel>
  </diagram>
</mxfile>
